<svg width="300" height="400" viewBox="0 0 300 400" xmlns="http://www.w3.org/2000/svg">
  <!-- Background -->
  <rect width="300" height="400" fill="#ffffff" />
  
  <!-- Diagonal accent -->
  <polygon points="0,0 300,0 300,80 0,150" fill="#8B5CF6" />
  
  <!-- Header area -->
  <circle cx="60" cy="80" r="40" fill="#ffffff" stroke="#8B5CF6" stroke-width="2" />
  <rect x="120" y="60" width="160" height="25" fill="#ffffff" rx="4" />
  <rect x="120" y="95" width="120" height="10" fill="#ffffff" rx="2" />
  
  <!-- Contact info -->
  <rect x="30" y="160" width="240" height="40" fill="#F3F4F6" rx="8" />
  <rect x="45" y="170" width="60" height="8" fill="#D1D5DB" rx="2" />
  <rect x="45" y="185" width="60" height="8" fill="#D1D5DB" rx="2" />
  <rect x="165" y="170" width="60" height="8" fill="#D1D5DB" rx="2" />
  <rect x="165" y="185" width="60" height="8" fill="#D1D5DB" rx="2" />
  
  <!-- Experience section -->
  <rect x="30" y="220" width="100" height="15" fill="#8B5CF6" rx="4" />
  <rect x="30" y="245" width="240" height="8" fill="#D1D5DB" rx="2" />
  <rect x="30" y="260" width="240" height="8" fill="#D1D5DB" rx="2" />
  <rect x="30" y="275" width="180" height="8" fill="#D1D5DB" rx="2" />
  
  <!-- Skills section -->
  <rect x="30" y="300" width="100" height="15" fill="#8B5CF6" rx="4" />
  <rect x="30" y="325" width="50" height="20" fill="#F3F4F6" rx="10" />
  <rect x="90" y="325" width="70" height="20" fill="#F3F4F6" rx="10" />
  <rect x="170" y="325" width="60" height="20" fill="#F3F4F6" rx="10" />
  <rect x="30" y="355" width="80" height="20" fill="#F3F4F6" rx="10" />
  <rect x="120" y="355" width="60" height="20" fill="#F3F4F6" rx="10" />
  
  <!-- Text label -->
  <text x="150" y="390" font-family="Arial" font-size="14" fill="#8B5CF6" text-anchor="middle">Creative Template</text>
</svg> 