<svg width="300" height="400" viewBox="0 0 300 400" xmlns="http://www.w3.org/2000/svg">
  <!-- Background -->
  <rect width="300" height="400" fill="#ffffff" />
  
  <!-- Header area -->
  <rect x="30" y="30" width="240" height="30" fill="#10B981" rx="4" />
  <rect x="30" y="70" width="180" height="10" fill="#D1D5DB" rx="2" />
  
  <!-- Contact info -->
  <rect x="30" y="100" width="240" height="1" fill="#E5E7EB" />
  <rect x="30" y="110" width="60" height="8" fill="#D1D5DB" rx="2" />
  <rect x="100" y="110" width="60" height="8" fill="#D1D5DB" rx="2" />
  <rect x="170" y="110" width="60" height="8" fill="#D1D5DB" rx="2" />
  <rect x="30" y="130" width="240" height="1" fill="#E5E7EB" />
  
  <!-- Experience section -->
  <rect x="30" y="150" width="100" height="15" fill="#10B981" rx="2" />
  <rect x="30" y="175" width="240" height="8" fill="#D1D5DB" rx="2" />
  <rect x="30" y="190" width="240" height="8" fill="#D1D5DB" rx="2" />
  <rect x="30" y="205" width="180" height="8" fill="#D1D5DB" rx="2" />
  
  <rect x="30" y="230" width="240" height="1" fill="#E5E7EB" />
  
  <!-- Education section -->
  <rect x="30" y="250" width="100" height="15" fill="#10B981" rx="2" />
  <rect x="30" y="275" width="240" height="8" fill="#D1D5DB" rx="2" />
  <rect x="30" y="290" width="180" height="8" fill="#D1D5DB" rx="2" />
  
  <rect x="30" y="315" width="240" height="1" fill="#E5E7EB" />
  
  <!-- Skills section -->
  <rect x="30" y="335" width="100" height="15" fill="#10B981" rx="2" />
  <rect x="30" y="360" width="50" height="8" fill="#D1D5DB" rx="4" />
  <rect x="90" y="360" width="50" height="8" fill="#D1D5DB" rx="4" />
  <rect x="150" y="360" width="50" height="8" fill="#D1D5DB" rx="4" />
  <rect x="210" y="360" width="50" height="8" fill="#D1D5DB" rx="4" />
  
  <!-- Text label -->
  <text x="150" y="390" font-family="Arial" font-size="14" fill="#10B981" text-anchor="middle">Minimal Template</text>
</svg> 