<svg width="300" height="400" viewBox="0 0 300 400" xmlns="http://www.w3.org/2000/svg">
  <!-- Background -->
  <rect width="300" height="400" fill="#ffffff" />
  
  <!-- Left sidebar -->
  <rect x="0" y="0" width="100" height="400" fill="#3B82F6" />
  
  <!-- Header area -->
  <rect x="110" y="20" width="180" height="40" fill="#E5E7EB" rx="4" />
  <rect x="110" y="70" width="140" height="10" fill="#D1D5DB" rx="2" />
  
  <!-- Contact info in sidebar -->
  <circle cx="50" cy="50" r="30" fill="#ffffff" />
  <rect x="20" y="100" width="60" height="8" fill="#ffffff" rx="2" />
  <rect x="20" y="115" width="60" height="8" fill="#ffffff" rx="2" />
  <rect x="20" y="130" width="60" height="8" fill="#ffffff" rx="2" />
  
  <!-- Skills in sidebar -->
  <rect x="20" y="170" width="60" height="10" fill="#ffffff" rx="2" />
  <rect x="20" y="190" width="40" height="6" fill="#ffffff" rx="2" />
  <rect x="20" y="205" width="50" height="6" fill="#ffffff" rx="2" />
  <rect x="20" y="220" width="45" height="6" fill="#ffffff" rx="2" />
  <rect x="20" y="235" width="55" height="6" fill="#ffffff" rx="2" />
  
  <!-- Experience section -->
  <rect x="110" y="110" width="100" height="15" fill="#E5E7EB" rx="2" />
  <rect x="110" y="135" width="180" height="8" fill="#D1D5DB" rx="2" />
  <rect x="110" y="150" width="180" height="8" fill="#D1D5DB" rx="2" />
  <rect x="110" y="165" width="140" height="8" fill="#D1D5DB" rx="2" />
  
  <rect x="110" y="190" width="100" height="15" fill="#E5E7EB" rx="2" />
  <rect x="110" y="215" width="180" height="8" fill="#D1D5DB" rx="2" />
  <rect x="110" y="230" width="180" height="8" fill="#D1D5DB" rx="2" />
  <rect x="110" y="245" width="140" height="8" fill="#D1D5DB" rx="2" />
  
  <!-- Education section -->
  <rect x="110" y="280" width="100" height="15" fill="#E5E7EB" rx="2" />
  <rect x="110" y="305" width="180" height="8" fill="#D1D5DB" rx="2" />
  <rect x="110" y="320" width="140" height="8" fill="#D1D5DB" rx="2" />
  
  <!-- Text label -->
  <text x="150" y="380" font-family="Arial" font-size="14" fill="#3B82F6" text-anchor="middle">Modern Template</text>
</svg> 